<svg width="960" height="720" viewBox="0 0 960 720" fill="none" xmlns="http://www.w3.org/2000/svg">
  <rect width="960" height="720" rx="40" fill="url(#bg)"/>
  <circle cx="123" cy="116" r="64" fill="#D8ECFF"/>
  <circle cx="835" cy="600" r="92" fill="#B8DBFF"/>
  <path d="M119 538C119 486.086 161.086 444 213 444H505C556.914 444 599 486.086 599 538V646H119V538Z" fill="#0F67D8"/>
  <path d="M373 384C425.467 384 468 341.467 468 289C468 236.533 425.467 194 373 194C320.533 194 278 236.533 278 289C278 341.467 320.533 384 373 384Z" fill="#0F2744"/>
  <path d="M357 366C407.81 366 449 324.81 449 274C449 223.19 407.81 182 357 182C306.19 182 265 223.19 265 274C265 324.81 306.19 366 357 366Z" fill="#F4F9FF"/>
  <path d="M289 542C289 489.533 331.533 447 384 447H640C692.467 447 735 489.533 735 542V646H289V542Z" fill="#33A3FF"/>
  <path d="M522 404C579.99 404 627 356.99 627 299C627 241.01 579.99 194 522 194C464.01 194 417 241.01 417 299C417 356.99 464.01 404 522 404Z" fill="#FFFFFF"/>
  <path d="M480 254C480 230.804 498.804 212 522 212C545.196 212 564 230.804 564 254V304H480V254Z" fill="#0F67D8"/>
  <rect x="456" y="304" width="132" height="72" rx="20" fill="#0F2744"/>
  <path d="M602 180H793C823.376 180 848 204.624 848 235V411C848 441.376 823.376 466 793 466H602C571.624 466 547 441.376 547 411V235C547 204.624 571.624 180 602 180Z" fill="#FDFEFF" stroke="#D5E8FF" stroke-width="4"/>
  <path d="M579 235C579 218.431 592.431 205 609 205H786C802.569 205 816 218.431 816 235V371C816 387.569 802.569 401 786 401H609C592.431 401 579 387.569 579 371V235Z" fill="#EAF4FF"/>
  <path d="M616 261H731" stroke="#0F67D8" stroke-width="20" stroke-linecap="round"/>
  <path d="M616 312H767" stroke="#7DBBFF" stroke-width="16" stroke-linecap="round"/>
  <path d="M616 351H705" stroke="#B5D8FF" stroke-width="16" stroke-linecap="round"/>
  <rect x="625" y="502" width="190" height="78" rx="24" fill="#FFFFFF"/>
  <path d="M660 541H777" stroke="#0F2744" stroke-width="16" stroke-linecap="round"/>
  <path d="M660 573H730" stroke="#7DBBFF" stroke-width="14" stroke-linecap="round"/>
  <defs>
    <linearGradient id="bg" x1="70" y1="52" x2="868" y2="679" gradientUnits="userSpaceOnUse">
      <stop stop-color="#F8FCFF"/>
      <stop offset="1" stop-color="#DCEEFF"/>
    </linearGradient>
  </defs>
</svg>
